classDiagram
    class AbsorptionSpectrum
    class ChemicalPotential
    class CrystalFieldSplitting
    class ElectronicBandGap
    class ElectronicBandStructure
    class ElectronicDensityOfStates
    class ElectronicEigenvalues
    class ElectronicGreensFunction
    class ElectronicSelfEnergy
    class FermiSurface
    class HoppingMatrix
    class HybridizationFunction
    class KineticEnergy
    class Occupancy
    class Outputs
    class Permittivity
    class PhysicalProperty
    class PotentialEnergy
    class QuasiparticleWeight
    class SCFOutputs
    class Temperature
    class TotalEnergy
    class TotalForce
    class XASSpectrum
    Outputs <|-- SCFOutputs
    Outputs --> AbsorptionSpectrum : absorption_spectra
    Outputs --> ChemicalPotential : chemical_potentials
    Outputs --> CrystalFieldSplitting : crystal_field_splittings
    Outputs --> ElectronicBandGap : electronic_band_gaps
    Outputs --> ElectronicBandStructure : electronic_band_structures
    Outputs --> ElectronicDensityOfStates : electronic_dos
    Outputs --> ElectronicEigenvalues : electronic_eigenvalues
    Outputs --> ElectronicGreensFunction : electronic_greens_functions
    Outputs --> ElectronicSelfEnergy : electronic_self_energies
    Outputs --> FermiSurface : fermi_surfaces
    Outputs --> HoppingMatrix : hopping_matrices
    Outputs --> HybridizationFunction : hybridization_functions
    Outputs --> KineticEnergy : kinetic_energies
    Outputs --> Occupancy : occupancies
    Outputs --> Permittivity : permittivities
    Outputs --> PotentialEnergy : potential_energies
    Outputs --> QuasiparticleWeight : quasiparticle_weights
    Outputs --> Temperature : temperatures
    Outputs --> TotalEnergy : total_energies
    Outputs --> TotalForce : total_forces
    Outputs --> XASSpectrum : xas_spectra
    PhysicalProperty --> PhysicalProperty : contributions
    SCFOutputs --> Outputs : scf_steps
